<svg xmlns="http://www.w3.org/2000/svg" xmlns:xlink="http://www.w3.org/1999/xlink" width="500" zoomAndPan="magnify" viewBox="0 0 375 374.999991" height="500" preserveAspectRatio="xMidYMid meet" version="1.0"><defs><g/><clipPath id="e6d8db7a38"><path d="M 88 118 L 287 118 L 287 187 L 88 187 Z M 88 118 " clip-rule="nonzero"/></clipPath><clipPath id="ec57e1c029"><path d="M 280.777344 160.4375 L 200.699219 184.5 C 192.089844 187.085938 182.910156 187.085938 174.300781 184.5 L 94.222656 160.4375 C 86.207031 158.03125 86.207031 146.679688 94.222656 144.269531 L 174.300781 120.207031 C 182.910156 117.621094 192.089844 117.621094 200.699219 120.207031 L 280.777344 144.269531 C 288.792969 146.679688 288.792969 158.03125 280.777344 160.4375 Z M 280.777344 160.4375 " clip-rule="nonzero"/></clipPath><linearGradient x1="-5.019515" gradientTransform="matrix(0.399222, 0, 0, 0.399222, 88.211374, 82.072628)" y1="176.047" x2="502.141829" gradientUnits="userSpaceOnUse" y2="176.047" id="c216a27432"><stop stop-opacity="1" stop-color="rgb(44.299316%, 27.099609%, 83.898926%)" offset="0"/><stop stop-opacity="1" stop-color="rgb(44.406128%, 27.19574%, 83.921814%)" offset="0.015625"/><stop stop-opacity="1" stop-color="rgb(44.657898%, 27.42157%, 83.976746%)" offset="0.0234375"/><stop stop-opacity="1" stop-color="rgb(44.947815%, 27.684021%, 84.039307%)" offset="0.03125"/><stop stop-opacity="1" stop-color="rgb(45.239258%, 27.946472%, 84.101868%)" offset="0.0390625"/><stop stop-opacity="1" stop-color="rgb(45.529175%, 28.208923%, 84.164429%)" offset="0.046875"/><stop stop-opacity="1" stop-color="rgb(45.820618%, 28.469849%, 84.228516%)" offset="0.0546875"/><stop stop-opacity="1" stop-color="rgb(46.110535%, 28.7323%, 84.291077%)" offset="0.0625"/><stop stop-opacity="1" stop-color="rgb(46.401978%, 28.994751%, 84.353638%)" offset="0.0703125"/><stop stop-opacity="1" stop-color="rgb(46.691895%, 29.257202%, 84.416199%)" offset="0.078125"/><stop stop-opacity="1" stop-color="rgb(46.983337%, 29.518127%, 84.480286%)" offset="0.0859375"/><stop stop-opacity="1" stop-color="rgb(47.27478%, 29.780579%, 84.542847%)" offset="0.09375"/><stop stop-opacity="1" stop-color="rgb(47.564697%, 30.04303%, 84.605408%)" offset="0.101562"/><stop stop-opacity="1" stop-color="rgb(47.85614%, 30.305481%, 84.667969%)" offset="0.109375"/><stop stop-opacity="1" stop-color="rgb(48.146057%, 30.566406%, 84.732056%)" offset="0.117188"/><stop stop-opacity="1" stop-color="rgb(48.4375%, 30.828857%, 84.794617%)" offset="0.125"/><stop stop-opacity="1" stop-color="rgb(48.727417%, 31.091309%, 84.857178%)" offset="0.132812"/><stop stop-opacity="1" stop-color="rgb(49.01886%, 31.35376%, 84.919739%)" offset="0.140625"/><stop stop-opacity="1" stop-color="rgb(49.308777%, 31.614685%, 84.983826%)" offset="0.148438"/><stop stop-opacity="1" stop-color="rgb(49.60022%, 31.877136%, 85.046387%)" offset="0.15625"/><stop stop-opacity="1" stop-color="rgb(49.890137%, 32.139587%, 85.108948%)" offset="0.164063"/><stop stop-opacity="1" stop-color="rgb(50.18158%, 32.402039%, 85.171509%)" offset="0.171875"/><stop stop-opacity="1" stop-color="rgb(50.473022%, 32.662964%, 85.23407%)" offset="0.179688"/><stop stop-opacity="1" stop-color="rgb(50.762939%, 32.925415%, 85.298157%)" offset="0.1875"/><stop stop-opacity="1" stop-color="rgb(51.054382%, 33.187866%, 85.360718%)" offset="0.195312"/><stop stop-opacity="1" stop-color="rgb(51.344299%, 33.450317%, 85.423279%)" offset="0.203125"/><stop stop-opacity="1" stop-color="rgb(51.635742%, 33.711243%, 85.48584%)" offset="0.210937"/><stop stop-opacity="1" stop-color="rgb(51.925659%, 33.973694%, 85.549927%)" offset="0.21875"/><stop stop-opacity="1" stop-color="rgb(52.217102%, 34.236145%, 85.612488%)" offset="0.226562"/><stop stop-opacity="1" stop-color="rgb(52.507019%, 34.498596%, 85.675049%)" offset="0.234375"/><stop stop-opacity="1" stop-color="rgb(52.798462%, 34.759521%, 85.73761%)" offset="0.242188"/><stop stop-opacity="1" stop-color="rgb(53.088379%, 35.021973%, 85.801697%)" offset="0.25"/><stop stop-opacity="1" stop-color="rgb(53.379822%, 35.284424%, 85.864258%)" offset="0.257813"/><stop stop-opacity="1" stop-color="rgb(53.669739%, 35.546875%, 85.926819%)" offset="0.265625"/><stop stop-opacity="1" stop-color="rgb(53.961182%, 35.8078%, 85.98938%)" offset="0.273438"/><stop stop-opacity="1" stop-color="rgb(54.252625%, 36.070251%, 86.053467%)" offset="0.28125"/><stop stop-opacity="1" stop-color="rgb(54.542542%, 36.332703%, 86.116028%)" offset="0.289062"/><stop stop-opacity="1" stop-color="rgb(54.833984%, 36.595154%, 86.178589%)" offset="0.296875"/><stop stop-opacity="1" stop-color="rgb(55.123901%, 36.856079%, 86.24115%)" offset="0.304688"/><stop stop-opacity="1" stop-color="rgb(55.415344%, 37.11853%, 86.305237%)" offset="0.3125"/><stop stop-opacity="1" stop-color="rgb(55.705261%, 37.380981%, 86.367798%)" offset="0.320312"/><stop stop-opacity="1" stop-color="rgb(55.996704%, 37.643433%, 86.430359%)" offset="0.328125"/><stop stop-opacity="1" stop-color="rgb(56.286621%, 37.904358%, 86.49292%)" offset="0.335938"/><stop stop-opacity="1" stop-color="rgb(56.578064%, 38.166809%, 86.557007%)" offset="0.34375"/><stop stop-opacity="1" stop-color="rgb(56.867981%, 38.42926%, 86.619568%)" offset="0.351562"/><stop stop-opacity="1" stop-color="rgb(57.159424%, 38.691711%, 86.682129%)" offset="0.359375"/><stop stop-opacity="1" stop-color="rgb(57.450867%, 38.952637%, 86.74469%)" offset="0.367188"/><stop stop-opacity="1" stop-color="rgb(57.740784%, 39.215088%, 86.808777%)" offset="0.375"/><stop stop-opacity="1" stop-color="rgb(58.032227%, 39.477539%, 86.871338%)" offset="0.382812"/><stop stop-opacity="1" stop-color="rgb(58.322144%, 39.73999%, 86.933899%)" offset="0.390625"/><stop stop-opacity="1" stop-color="rgb(58.613586%, 40.000916%, 86.99646%)" offset="0.398438"/><stop stop-opacity="1" stop-color="rgb(58.903503%, 40.263367%, 87.059021%)" offset="0.40625"/><stop stop-opacity="1" stop-color="rgb(59.194946%, 40.525818%, 87.123108%)" offset="0.414062"/><stop stop-opacity="1" stop-color="rgb(59.484863%, 40.788269%, 87.185669%)" offset="0.421875"/><stop stop-opacity="1" stop-color="rgb(59.776306%, 41.049194%, 87.24823%)" offset="0.429688"/><stop stop-opacity="1" stop-color="rgb(60.066223%, 41.311646%, 87.310791%)" offset="0.4375"/><stop stop-opacity="1" stop-color="rgb(60.357666%, 41.574097%, 87.374878%)" offset="0.445312"/><stop stop-opacity="1" stop-color="rgb(60.649109%, 41.836548%, 87.437439%)" offset="0.453125"/><stop stop-opacity="1" stop-color="rgb(60.939026%, 42.097473%, 87.5%)" offset="0.460938"/><stop stop-opacity="1" stop-color="rgb(61.230469%, 42.359924%, 87.562561%)" offset="0.46875"/><stop stop-opacity="1" stop-color="rgb(61.520386%, 42.622375%, 87.626648%)" offset="0.476562"/><stop stop-opacity="1" stop-color="rgb(61.811829%, 42.884827%, 87.689209%)" offset="0.484375"/><stop stop-opacity="1" stop-color="rgb(62.101746%, 43.145752%, 87.75177%)" offset="0.492188"/><stop stop-opacity="1" stop-color="rgb(62.393188%, 43.408203%, 87.814331%)" offset="0.5"/><stop stop-opacity="1" stop-color="rgb(62.683105%, 43.670654%, 87.878418%)" offset="0.507813"/><stop stop-opacity="1" stop-color="rgb(62.974548%, 43.933105%, 87.940979%)" offset="0.515625"/><stop stop-opacity="1" stop-color="rgb(63.264465%, 44.194031%, 88.00354%)" offset="0.523438"/><stop stop-opacity="1" stop-color="rgb(63.555908%, 44.456482%, 88.066101%)" offset="0.53125"/><stop stop-opacity="1" stop-color="rgb(63.847351%, 44.718933%, 88.130188%)" offset="0.539062"/><stop stop-opacity="1" stop-color="rgb(64.137268%, 44.981384%, 88.192749%)" offset="0.546875"/><stop stop-opacity="1" stop-color="rgb(64.428711%, 45.24231%, 88.25531%)" offset="0.554688"/><stop stop-opacity="1" stop-color="rgb(64.718628%, 45.504761%, 88.317871%)" offset="0.5625"/><stop stop-opacity="1" stop-color="rgb(65.010071%, 45.767212%, 88.381958%)" offset="0.570312"/><stop stop-opacity="1" stop-color="rgb(65.299988%, 46.029663%, 88.444519%)" offset="0.578125"/><stop stop-opacity="1" stop-color="rgb(65.591431%, 46.290588%, 88.50708%)" offset="0.585938"/><stop stop-opacity="1" stop-color="rgb(65.881348%, 46.55304%, 88.569641%)" offset="0.59375"/><stop stop-opacity="1" stop-color="rgb(66.172791%, 46.815491%, 88.633728%)" offset="0.601562"/><stop stop-opacity="1" stop-color="rgb(66.462708%, 47.077942%, 88.696289%)" offset="0.609375"/><stop stop-opacity="1" stop-color="rgb(66.75415%, 47.338867%, 88.75885%)" offset="0.617188"/><stop stop-opacity="1" stop-color="rgb(67.045593%, 47.601318%, 88.821411%)" offset="0.625"/><stop stop-opacity="1" stop-color="rgb(67.33551%, 47.86377%, 88.883972%)" offset="0.632812"/><stop stop-opacity="1" stop-color="rgb(67.626953%, 48.126221%, 88.948059%)" offset="0.640625"/><stop stop-opacity="1" stop-color="rgb(67.91687%, 48.387146%, 89.01062%)" offset="0.648438"/><stop stop-opacity="1" stop-color="rgb(68.208313%, 48.649597%, 89.073181%)" offset="0.65625"/><stop stop-opacity="1" stop-color="rgb(68.49823%, 48.912048%, 89.135742%)" offset="0.664062"/><stop stop-opacity="1" stop-color="rgb(68.789673%, 49.1745%, 89.199829%)" offset="0.671875"/><stop stop-opacity="1" stop-color="rgb(69.07959%, 49.435425%, 89.26239%)" offset="0.679688"/><stop stop-opacity="1" stop-color="rgb(69.371033%, 49.697876%, 89.324951%)" offset="0.6875"/><stop stop-opacity="1" stop-color="rgb(69.66095%, 49.960327%, 89.387512%)" offset="0.695313"/><stop stop-opacity="1" stop-color="rgb(69.952393%, 50.222778%, 89.451599%)" offset="0.703125"/><stop stop-opacity="1" stop-color="rgb(70.24231%, 50.483704%, 89.51416%)" offset="0.710938"/><stop stop-opacity="1" stop-color="rgb(70.533752%, 50.746155%, 89.576721%)" offset="0.71875"/><stop stop-opacity="1" stop-color="rgb(70.825195%, 51.008606%, 89.639282%)" offset="0.726563"/><stop stop-opacity="1" stop-color="rgb(71.115112%, 51.271057%, 89.703369%)" offset="0.734375"/><stop stop-opacity="1" stop-color="rgb(71.406555%, 51.531982%, 89.76593%)" offset="0.742188"/><stop stop-opacity="1" stop-color="rgb(71.696472%, 51.794434%, 89.828491%)" offset="0.75"/><stop stop-opacity="1" stop-color="rgb(71.987915%, 52.056885%, 89.891052%)" offset="0.757813"/><stop stop-opacity="1" stop-color="rgb(72.277832%, 52.319336%, 89.955139%)" offset="0.765625"/><stop stop-opacity="1" stop-color="rgb(72.569275%, 52.580261%, 90.0177%)" offset="0.773438"/><stop stop-opacity="1" stop-color="rgb(72.859192%, 52.842712%, 90.080261%)" offset="0.78125"/><stop stop-opacity="1" stop-color="rgb(73.150635%, 53.105164%, 90.142822%)" offset="0.789063"/><stop stop-opacity="1" stop-color="rgb(73.440552%, 53.367615%, 90.206909%)" offset="0.796875"/><stop stop-opacity="1" stop-color="rgb(73.731995%, 53.62854%, 90.26947%)" offset="0.804688"/><stop stop-opacity="1" stop-color="rgb(74.023438%, 53.890991%, 90.332031%)" offset="0.8125"/><stop stop-opacity="1" stop-color="rgb(74.313354%, 54.153442%, 90.394592%)" offset="0.820312"/><stop stop-opacity="1" stop-color="rgb(74.604797%, 54.415894%, 90.457153%)" offset="0.828125"/><stop stop-opacity="1" stop-color="rgb(74.894714%, 54.676819%, 90.52124%)" offset="0.835938"/><stop stop-opacity="1" stop-color="rgb(75.186157%, 54.93927%, 90.583801%)" offset="0.84375"/><stop stop-opacity="1" stop-color="rgb(75.476074%, 55.201721%, 90.646362%)" offset="0.851562"/><stop stop-opacity="1" stop-color="rgb(75.767517%, 55.464172%, 90.708923%)" offset="0.859375"/><stop stop-opacity="1" stop-color="rgb(76.057434%, 55.725098%, 90.77301%)" offset="0.867188"/><stop stop-opacity="1" stop-color="rgb(76.348877%, 55.987549%, 90.835571%)" offset="0.875"/><stop stop-opacity="1" stop-color="rgb(76.638794%, 56.25%, 90.898132%)" offset="0.882812"/><stop stop-opacity="1" stop-color="rgb(76.930237%, 56.512451%, 90.960693%)" offset="0.890625"/><stop stop-opacity="1" stop-color="rgb(77.22168%, 56.773376%, 91.02478%)" offset="0.898438"/><stop stop-opacity="1" stop-color="rgb(77.511597%, 57.035828%, 91.087341%)" offset="0.90625"/><stop stop-opacity="1" stop-color="rgb(77.80304%, 57.298279%, 91.149902%)" offset="0.914062"/><stop stop-opacity="1" stop-color="rgb(78.092957%, 57.56073%, 91.212463%)" offset="0.921875"/><stop stop-opacity="1" stop-color="rgb(78.384399%, 57.821655%, 91.27655%)" offset="0.929688"/><stop stop-opacity="1" stop-color="rgb(78.674316%, 58.084106%, 91.339111%)" offset="0.9375"/><stop stop-opacity="1" stop-color="rgb(78.965759%, 58.346558%, 91.401672%)" offset="0.945313"/><stop stop-opacity="1" stop-color="rgb(79.255676%, 58.609009%, 91.464233%)" offset="0.953125"/><stop stop-opacity="1" stop-color="rgb(79.547119%, 58.869934%, 91.52832%)" offset="0.960938"/><stop stop-opacity="1" stop-color="rgb(79.837036%, 59.132385%, 91.590881%)" offset="0.96875"/><stop stop-opacity="1" stop-color="rgb(80.128479%, 59.394836%, 91.653442%)" offset="0.976563"/><stop stop-opacity="1" stop-color="rgb(80.419922%, 59.657288%, 91.716003%)" offset="0.984375"/><stop stop-opacity="1" stop-color="rgb(80.682373%, 59.893799%, 91.773987%)" offset="1"/></linearGradient></defs><path fill="#ce99ea" d="M 280.777344 196.632812 L 200.699219 220.695312 C 192.089844 223.28125 182.910156 223.28125 174.300781 220.695312 L 94.222656 196.632812 C 86.207031 194.226562 86.207031 182.875 94.222656 180.464844 L 174.300781 156.402344 C 182.910156 153.816406 192.089844 153.816406 200.699219 156.402344 L 280.777344 180.464844 C 288.792969 182.875 288.792969 194.226562 280.777344 196.632812 Z M 280.777344 196.632812 " fill-opacity="1" fill-rule="nonzero"/><g clip-path="url(#e6d8db7a38)"><g clip-path="url(#ec57e1c029)"><path fill="url(#c216a27432)" d="M 86.207031 117.621094 L 86.207031 187.085938 L 288.675781 187.085938 L 288.675781 117.621094 Z M 86.207031 117.621094 " fill-rule="nonzero"/></g></g><path fill="#1b1b1b" d="M 280.777344 124.242188 L 200.699219 148.304688 C 192.089844 150.890625 182.910156 150.890625 174.300781 148.304688 L 94.222656 124.242188 C 86.207031 121.832031 86.207031 110.484375 94.222656 108.074219 L 174.300781 84.011719 C 182.910156 81.425781 192.089844 81.425781 200.699219 84.011719 L 280.777344 108.074219 C 288.792969 110.484375 288.792969 121.832031 280.777344 124.242188 Z M 280.777344 124.242188 " fill-opacity="1" fill-rule="nonzero"/><g fill="#1b1b1b" fill-opacity="1"><g transform="translate(151.98339, 266.144353)"><g><path d="M 31.46875 -12.9375 C 31.46875 -11.125 31.203125 -9.429688 30.671875 -7.859375 C 30.140625 -6.285156 29.335938 -4.910156 28.265625 -3.734375 C 27.191406 -2.554688 25.847656 -1.640625 24.234375 -0.984375 C 22.617188 -0.328125 20.71875 0 18.53125 0 L 2.34375 0 L 2.34375 -25.890625 L 18.53125 -25.890625 C 20.71875 -25.890625 22.617188 -25.554688 24.234375 -24.890625 C 25.847656 -24.234375 27.191406 -23.316406 28.265625 -22.140625 C 29.335938 -20.960938 30.140625 -19.585938 30.671875 -18.015625 C 31.203125 -16.453125 31.46875 -14.757812 31.46875 -12.9375 Z M 8.359375 -20.671875 L 8.359375 -5.21875 L 18.53125 -5.21875 C 19.789062 -5.21875 20.847656 -5.425781 21.703125 -5.84375 C 22.554688 -6.269531 23.242188 -6.847656 23.765625 -7.578125 C 24.296875 -8.304688 24.675781 -9.128906 24.90625 -10.046875 C 25.144531 -10.972656 25.265625 -11.9375 25.265625 -12.9375 C 25.265625 -13.9375 25.144531 -14.898438 24.90625 -15.828125 C 24.675781 -16.753906 24.296875 -17.582031 23.765625 -18.3125 C 23.242188 -19.039062 22.554688 -19.613281 21.703125 -20.03125 C 20.847656 -20.457031 19.789062 -20.671875 18.53125 -20.671875 Z M 8.359375 -20.671875 "/></g></g></g><g fill="#1b1b1b" fill-opacity="1"><g transform="translate(185.063539, 266.144353)"><g><path d="M 10.046875 -25.890625 L 18.96875 -8.015625 L 27.890625 -25.890625 L 35.59375 -25.890625 L 35.59375 0 L 29.578125 0 L 29.578125 -16.609375 L 21.296875 0 L 16.640625 0 L 8.359375 -16.609375 L 8.359375 0 L 2.34375 0 L 2.34375 -25.890625 Z M 10.046875 -25.890625 "/></g></g></g><g fill="#1b1b1b" fill-opacity="1"><g transform="translate(116.157387, 289.030916)"><g><path d="M 2.234375 0 L 1.265625 0 L 1.265625 -9.515625 L 7 -9.515625 L 7 -8.65625 L 2.234375 -8.65625 L 2.234375 -5.34375 L 6.671875 -5.34375 L 6.671875 -4.5 L 2.234375 -4.5 Z M 2.234375 0 "/></g></g></g><g fill="#1b1b1b" fill-opacity="1"><g transform="translate(123.709353, 289.030916)"><g><path d="M 3.546875 0.15625 C 2.765625 0.15625 2.171875 -0.0703125 1.765625 -0.53125 C 1.359375 -1 1.15625 -1.632812 1.15625 -2.4375 L 1.15625 -6.296875 L 2.0625 -6.296875 L 2.0625 -2.8125 C 2.0625 -2.101562 2.1875 -1.554688 2.4375 -1.171875 C 2.695312 -0.796875 3.144531 -0.609375 3.78125 -0.609375 C 4.113281 -0.609375 4.421875 -0.695312 4.703125 -0.875 C 4.992188 -1.0625 5.226562 -1.335938 5.40625 -1.703125 C 5.59375 -2.066406 5.6875 -2.519531 5.6875 -3.0625 L 5.6875 -6.296875 L 6.59375 -6.296875 L 6.59375 -1.390625 C 6.59375 -0.847656 6.613281 -0.382812 6.65625 0 L 5.78125 0 C 5.738281 -0.445312 5.71875 -0.804688 5.71875 -1.078125 L 5.703125 -1.078125 C 5.578125 -0.835938 5.398438 -0.625 5.171875 -0.4375 C 4.953125 -0.25 4.695312 -0.101562 4.40625 0 C 4.125 0.101562 3.835938 0.15625 3.546875 0.15625 Z M 3.546875 0.15625 "/></g></g></g><g fill="#1b1b1b" fill-opacity="1"><g transform="translate(131.516634, 289.030916)"><g><path d="M 2.96875 0.078125 C 2.539062 0.078125 2.164062 -0.046875 1.84375 -0.296875 C 1.519531 -0.546875 1.359375 -0.976562 1.359375 -1.59375 L 1.359375 -5.53125 L 0.046875 -5.53125 L 0.046875 -6.296875 L 1.359375 -6.296875 L 1.359375 -8.0625 L 2.265625 -8.0625 L 2.265625 -6.296875 L 4.046875 -6.296875 L 4.046875 -5.53125 L 2.265625 -5.53125 L 2.265625 -1.859375 C 2.265625 -1.421875 2.34375 -1.117188 2.5 -0.953125 C 2.664062 -0.785156 2.90625 -0.703125 3.21875 -0.703125 C 3.34375 -0.703125 3.472656 -0.71875 3.609375 -0.75 C 3.742188 -0.789062 3.875 -0.84375 4 -0.90625 L 4.046875 -0.109375 C 3.710938 0.015625 3.351562 0.078125 2.96875 0.078125 Z M 2.96875 0.078125 "/></g></g></g><g fill="#1b1b1b" fill-opacity="1"><g transform="translate(135.776368, 289.030916)"><g><path d="M 3.546875 0.15625 C 2.765625 0.15625 2.171875 -0.0703125 1.765625 -0.53125 C 1.359375 -1 1.15625 -1.632812 1.15625 -2.4375 L 1.15625 -6.296875 L 2.0625 -6.296875 L 2.0625 -2.8125 C 2.0625 -2.101562 2.1875 -1.554688 2.4375 -1.171875 C 2.695312 -0.796875 3.144531 -0.609375 3.78125 -0.609375 C 4.113281 -0.609375 4.421875 -0.695312 4.703125 -0.875 C 4.992188 -1.0625 5.226562 -1.335938 5.40625 -1.703125 C 5.59375 -2.066406 5.6875 -2.519531 5.6875 -3.0625 L 5.6875 -6.296875 L 6.59375 -6.296875 L 6.59375 -1.390625 C 6.59375 -0.847656 6.613281 -0.382812 6.65625 0 L 5.78125 0 C 5.738281 -0.445312 5.71875 -0.804688 5.71875 -1.078125 L 5.703125 -1.078125 C 5.578125 -0.835938 5.398438 -0.625 5.171875 -0.4375 C 4.953125 -0.25 4.695312 -0.101562 4.40625 0 C 4.125 0.101562 3.835938 0.15625 3.546875 0.15625 Z M 3.546875 0.15625 "/></g></g></g><g fill="#1b1b1b" fill-opacity="1"><g transform="translate(143.583649, 289.030916)"><g><path d="M 1.203125 -4.90625 C 1.203125 -5.445312 1.1875 -5.910156 1.15625 -6.296875 L 2.03125 -6.296875 C 2.0625 -5.847656 2.078125 -5.488281 2.078125 -5.21875 L 2.109375 -5.21875 C 2.285156 -5.582031 2.554688 -5.878906 2.921875 -6.109375 C 3.285156 -6.335938 3.6875 -6.453125 4.125 -6.453125 C 4.363281 -6.453125 4.566406 -6.429688 4.734375 -6.390625 L 4.609375 -5.515625 C 4.554688 -5.535156 4.460938 -5.554688 4.328125 -5.578125 C 4.203125 -5.597656 4.082031 -5.609375 3.96875 -5.609375 C 3.625 -5.609375 3.3125 -5.519531 3.03125 -5.34375 C 2.757812 -5.175781 2.539062 -4.914062 2.375 -4.5625 C 2.207031 -4.207031 2.125 -3.757812 2.125 -3.21875 L 2.125 0 L 1.203125 0 Z M 1.203125 -4.90625 "/></g></g></g><g fill="#1b1b1b" fill-opacity="1"><g transform="translate(148.421205, 289.030916)"><g><path d="M 4.09375 0.15625 C 3.457031 0.15625 2.882812 0.015625 2.375 -0.265625 C 1.863281 -0.554688 1.460938 -0.953125 1.171875 -1.453125 C 0.890625 -1.953125 0.75 -2.515625 0.75 -3.140625 C 0.75 -3.765625 0.890625 -4.328125 1.171875 -4.828125 C 1.460938 -5.335938 1.863281 -5.734375 2.375 -6.015625 C 2.882812 -6.304688 3.457031 -6.453125 4.09375 -6.453125 C 4.738281 -6.453125 5.316406 -6.304688 5.828125 -6.015625 C 6.335938 -5.734375 6.734375 -5.335938 7.015625 -4.828125 C 7.304688 -4.328125 7.453125 -3.765625 7.453125 -3.140625 C 7.453125 -2.515625 7.304688 -1.953125 7.015625 -1.453125 C 6.734375 -0.953125 6.335938 -0.554688 5.828125 -0.265625 C 5.316406 0.015625 4.738281 0.15625 4.09375 0.15625 Z M 4.09375 -0.625 C 4.570312 -0.625 4.992188 -0.734375 5.359375 -0.953125 C 5.722656 -1.179688 6 -1.484375 6.1875 -1.859375 C 6.382812 -2.242188 6.484375 -2.671875 6.484375 -3.140625 C 6.484375 -3.617188 6.382812 -4.050781 6.1875 -4.4375 C 6 -4.820312 5.722656 -5.125 5.359375 -5.34375 C 4.992188 -5.570312 4.570312 -5.6875 4.09375 -5.6875 C 3.625 -5.6875 3.207031 -5.570312 2.84375 -5.34375 C 2.488281 -5.125 2.210938 -4.820312 2.015625 -4.4375 C 1.816406 -4.050781 1.71875 -3.617188 1.71875 -3.140625 C 1.71875 -2.671875 1.816406 -2.242188 2.015625 -1.859375 C 2.210938 -1.484375 2.488281 -1.179688 2.84375 -0.953125 C 3.207031 -0.734375 3.625 -0.625 4.09375 -0.625 Z M 4.09375 -0.625 "/></g></g></g><g fill="#1b1b1b" fill-opacity="1"><g transform="translate(156.631611, 289.030916)"><g/></g></g><g fill="#1b1b1b" fill-opacity="1"><g transform="translate(159.991032, 289.030916)"><g><path d="M 4 0.15625 C 3.363281 0.15625 2.796875 0.0078125 2.296875 -0.28125 C 1.804688 -0.570312 1.425781 -0.96875 1.15625 -1.46875 C 0.882812 -1.96875 0.75 -2.523438 0.75 -3.140625 C 0.75 -3.765625 0.882812 -4.328125 1.15625 -4.828125 C 1.425781 -5.328125 1.804688 -5.722656 2.296875 -6.015625 C 2.796875 -6.304688 3.363281 -6.453125 4 -6.453125 C 4.46875 -6.453125 4.914062 -6.34375 5.34375 -6.125 C 5.78125 -5.90625 6.128906 -5.597656 6.390625 -5.203125 L 6.40625 -5.203125 L 6.40625 -10.15625 L 7.328125 -10.15625 L 7.328125 0 L 6.40625 0 L 6.40625 -1.0625 L 6.390625 -1.0625 C 6.128906 -0.675781 5.78125 -0.375 5.34375 -0.15625 C 4.914062 0.0507812 4.46875 0.15625 4 0.15625 Z M 4.09375 -0.625 C 4.5625 -0.625 4.976562 -0.734375 5.34375 -0.953125 C 5.71875 -1.171875 6.003906 -1.472656 6.203125 -1.859375 C 6.410156 -2.242188 6.515625 -2.671875 6.515625 -3.140625 C 6.515625 -3.617188 6.410156 -4.050781 6.203125 -4.4375 C 6.003906 -4.820312 5.71875 -5.125 5.34375 -5.34375 C 4.976562 -5.570312 4.5625 -5.6875 4.09375 -5.6875 C 3.601562 -5.6875 3.175781 -5.570312 2.8125 -5.34375 C 2.457031 -5.125 2.1875 -4.820312 2 -4.4375 C 1.8125 -4.050781 1.71875 -3.617188 1.71875 -3.140625 C 1.71875 -2.671875 1.8125 -2.242188 2 -1.859375 C 2.1875 -1.484375 2.457031 -1.179688 2.8125 -0.953125 C 3.175781 -0.734375 3.601562 -0.625 4.09375 -0.625 Z M 4.09375 -0.625 "/></g></g></g><g fill="#1b1b1b" fill-opacity="1"><g transform="translate(168.550817, 289.030916)"><g><path d="M 4 0.15625 C 3.382812 0.15625 2.828125 0.015625 2.328125 -0.265625 C 1.835938 -0.554688 1.453125 -0.953125 1.171875 -1.453125 C 0.890625 -1.953125 0.75 -2.515625 0.75 -3.140625 C 0.75 -3.765625 0.882812 -4.328125 1.15625 -4.828125 C 1.4375 -5.335938 1.816406 -5.734375 2.296875 -6.015625 C 2.785156 -6.304688 3.328125 -6.453125 3.921875 -6.453125 C 4.554688 -6.453125 5.097656 -6.3125 5.546875 -6.03125 C 6.003906 -5.757812 6.347656 -5.382812 6.578125 -4.90625 C 6.816406 -4.4375 6.9375 -3.910156 6.9375 -3.328125 C 6.9375 -3.148438 6.929688 -3.007812 6.921875 -2.90625 L 1.703125 -2.90625 C 1.710938 -2.476562 1.816406 -2.09375 2.015625 -1.75 C 2.222656 -1.40625 2.5 -1.128906 2.84375 -0.921875 C 3.195312 -0.722656 3.582031 -0.625 4 -0.625 C 4.4375 -0.625 4.832031 -0.726562 5.1875 -0.9375 C 5.550781 -1.144531 5.828125 -1.398438 6.015625 -1.703125 L 6.703125 -1.171875 C 6.003906 -0.285156 5.101562 0.15625 4 0.15625 Z M 6 -3.625 C 5.988281 -4.03125 5.898438 -4.382812 5.734375 -4.6875 C 5.566406 -5 5.328125 -5.242188 5.015625 -5.421875 C 4.710938 -5.597656 4.347656 -5.6875 3.921875 -5.6875 C 3.523438 -5.6875 3.164062 -5.59375 2.84375 -5.40625 C 2.519531 -5.21875 2.257812 -4.960938 2.0625 -4.640625 C 1.863281 -4.328125 1.75 -3.988281 1.71875 -3.625 Z M 6 -3.625 "/></g></g></g><g fill="#1b1b1b" fill-opacity="1"><g transform="translate(176.237161, 289.030916)"><g/></g></g><g fill="#1b1b1b" fill-opacity="1"><g transform="translate(179.596582, 289.030916)"><g><path d="M 2.15625 0 L 1.234375 0 L 1.234375 -10.15625 L 2.15625 -10.15625 Z M 2.15625 0 "/></g></g></g><g fill="#1b1b1b" fill-opacity="1"><g transform="translate(182.982876, 289.030916)"><g><path d="M 2.921875 0.15625 C 2.566406 0.15625 2.222656 0.09375 1.890625 -0.03125 C 1.554688 -0.164062 1.28125 -0.375 1.0625 -0.65625 C 0.84375 -0.945312 0.734375 -1.3125 0.734375 -1.75 C 0.734375 -2.34375 0.925781 -2.796875 1.3125 -3.109375 C 1.707031 -3.421875 2.210938 -3.625 2.828125 -3.71875 C 3.441406 -3.8125 4.207031 -3.859375 5.125 -3.859375 L 5.171875 -3.859375 L 5.171875 -4.0625 C 5.171875 -4.59375 5.023438 -4.992188 4.734375 -5.265625 C 4.453125 -5.546875 4.039062 -5.6875 3.5 -5.6875 C 3.132812 -5.6875 2.785156 -5.617188 2.453125 -5.484375 C 2.128906 -5.347656 1.851562 -5.164062 1.625 -4.9375 L 1.109375 -5.546875 C 1.378906 -5.816406 1.726562 -6.035156 2.15625 -6.203125 C 2.59375 -6.367188 3.070312 -6.453125 3.59375 -6.453125 C 4.050781 -6.453125 4.460938 -6.363281 4.828125 -6.1875 C 5.203125 -6.019531 5.492188 -5.765625 5.703125 -5.421875 C 5.921875 -5.078125 6.03125 -4.660156 6.03125 -4.171875 L 6.03125 -1.40625 C 6.03125 -1.15625 6.039062 -0.898438 6.0625 -0.640625 C 6.082031 -0.378906 6.109375 -0.164062 6.140625 0 L 5.328125 0 C 5.265625 -0.351562 5.234375 -0.691406 5.234375 -1.015625 L 5.203125 -1.015625 C 4.910156 -0.609375 4.582031 -0.3125 4.21875 -0.125 C 3.863281 0.0625 3.429688 0.15625 2.921875 0.15625 Z M 3.15625 -0.59375 C 3.570312 -0.59375 3.929688 -0.6875 4.234375 -0.875 C 4.535156 -1.0625 4.765625 -1.3125 4.921875 -1.625 C 5.085938 -1.945312 5.171875 -2.296875 5.171875 -2.671875 L 5.171875 -3.140625 L 4.90625 -3.140625 C 3.957031 -3.140625 3.179688 -3.046875 2.578125 -2.859375 C 1.984375 -2.679688 1.6875 -2.320312 1.6875 -1.78125 C 1.6875 -1.375 1.828125 -1.070312 2.109375 -0.875 C 2.398438 -0.6875 2.75 -0.59375 3.15625 -0.59375 Z M 3.15625 -0.59375 "/></g></g></g><g fill="#1b1b1b" fill-opacity="1"><g transform="translate(190.158589, 289.030916)"><g/></g></g><g fill="#1b1b1b" fill-opacity="1"><g transform="translate(193.51801, 289.030916)"><g><path d="M 2.96875 0.078125 C 2.539062 0.078125 2.164062 -0.046875 1.84375 -0.296875 C 1.519531 -0.546875 1.359375 -0.976562 1.359375 -1.59375 L 1.359375 -5.53125 L 0.046875 -5.53125 L 0.046875 -6.296875 L 1.359375 -6.296875 L 1.359375 -8.0625 L 2.265625 -8.0625 L 2.265625 -6.296875 L 4.046875 -6.296875 L 4.046875 -5.53125 L 2.265625 -5.53125 L 2.265625 -1.859375 C 2.265625 -1.421875 2.34375 -1.117188 2.5 -0.953125 C 2.664062 -0.785156 2.90625 -0.703125 3.21875 -0.703125 C 3.34375 -0.703125 3.472656 -0.71875 3.609375 -0.75 C 3.742188 -0.789062 3.875 -0.84375 4 -0.90625 L 4.046875 -0.109375 C 3.710938 0.015625 3.351562 0.078125 2.96875 0.078125 Z M 2.96875 0.078125 "/></g></g></g><g fill="#1b1b1b" fill-opacity="1"><g transform="translate(197.777744, 289.030916)"><g><path d="M 4 0.15625 C 3.382812 0.15625 2.828125 0.015625 2.328125 -0.265625 C 1.835938 -0.554688 1.453125 -0.953125 1.171875 -1.453125 C 0.890625 -1.953125 0.75 -2.515625 0.75 -3.140625 C 0.75 -3.765625 0.882812 -4.328125 1.15625 -4.828125 C 1.4375 -5.335938 1.816406 -5.734375 2.296875 -6.015625 C 2.785156 -6.304688 3.328125 -6.453125 3.921875 -6.453125 C 4.554688 -6.453125 5.097656 -6.3125 5.546875 -6.03125 C 6.003906 -5.757812 6.347656 -5.382812 6.578125 -4.90625 C 6.816406 -4.4375 6.9375 -3.910156 6.9375 -3.328125 C 6.9375 -3.148438 6.929688 -3.007812 6.921875 -2.90625 L 1.703125 -2.90625 C 1.710938 -2.476562 1.816406 -2.09375 2.015625 -1.75 C 2.222656 -1.40625 2.5 -1.128906 2.84375 -0.921875 C 3.195312 -0.722656 3.582031 -0.625 4 -0.625 C 4.4375 -0.625 4.832031 -0.726562 5.1875 -0.9375 C 5.550781 -1.144531 5.828125 -1.398438 6.015625 -1.703125 L 6.703125 -1.171875 C 6.003906 -0.285156 5.101562 0.15625 4 0.15625 Z M 6 -3.625 C 5.988281 -4.03125 5.898438 -4.382812 5.734375 -4.6875 C 5.566406 -5 5.328125 -5.242188 5.015625 -5.421875 C 4.710938 -5.597656 4.347656 -5.6875 3.921875 -5.6875 C 3.523438 -5.6875 3.164062 -5.59375 2.84375 -5.40625 C 2.519531 -5.21875 2.257812 -4.960938 2.0625 -4.640625 C 1.863281 -4.328125 1.75 -3.988281 1.71875 -3.625 Z M 6 -3.625 "/></g></g></g><g fill="#1b1b1b" fill-opacity="1"><g transform="translate(205.464089, 289.030916)"><g><path d="M 4.109375 0.15625 C 3.453125 0.15625 2.863281 0.015625 2.34375 -0.265625 C 1.832031 -0.554688 1.4375 -0.953125 1.15625 -1.453125 C 0.882812 -1.953125 0.75 -2.515625 0.75 -3.140625 C 0.75 -3.765625 0.882812 -4.328125 1.15625 -4.828125 C 1.4375 -5.335938 1.832031 -5.734375 2.34375 -6.015625 C 2.863281 -6.304688 3.453125 -6.453125 4.109375 -6.453125 C 4.554688 -6.453125 4.992188 -6.359375 5.421875 -6.171875 C 5.847656 -5.984375 6.191406 -5.710938 6.453125 -5.359375 L 5.734375 -4.84375 C 5.585938 -5.09375 5.367188 -5.296875 5.078125 -5.453125 C 4.785156 -5.609375 4.46875 -5.6875 4.125 -5.6875 C 3.644531 -5.6875 3.222656 -5.578125 2.859375 -5.359375 C 2.492188 -5.140625 2.210938 -4.832031 2.015625 -4.4375 C 1.816406 -4.050781 1.71875 -3.617188 1.71875 -3.140625 C 1.71875 -2.671875 1.816406 -2.242188 2.015625 -1.859375 C 2.210938 -1.472656 2.492188 -1.171875 2.859375 -0.953125 C 3.222656 -0.734375 3.640625 -0.625 4.109375 -0.625 C 4.835938 -0.625 5.40625 -0.894531 5.8125 -1.4375 L 6.5 -0.921875 C 5.90625 -0.203125 5.109375 0.15625 4.109375 0.15625 Z M 4.109375 0.15625 "/></g></g></g><g fill="#1b1b1b" fill-opacity="1"><g transform="translate(212.182918, 289.030916)"><g><path d="M 1.203125 -4.90625 C 1.203125 -5.445312 1.1875 -5.910156 1.15625 -6.296875 L 2.03125 -6.296875 C 2.0625 -5.847656 2.078125 -5.488281 2.078125 -5.21875 L 2.109375 -5.21875 C 2.222656 -5.457031 2.390625 -5.664062 2.609375 -5.84375 C 2.835938 -6.03125 3.09375 -6.175781 3.375 -6.28125 C 3.664062 -6.394531 3.960938 -6.453125 4.265625 -6.453125 C 5.035156 -6.453125 5.625 -6.21875 6.03125 -5.75 C 6.445312 -5.28125 6.65625 -4.648438 6.65625 -3.859375 L 6.65625 0 L 5.734375 0 L 5.734375 -3.484375 C 5.734375 -4.191406 5.601562 -4.734375 5.34375 -5.109375 C 5.09375 -5.492188 4.65625 -5.6875 4.03125 -5.6875 C 3.6875 -5.6875 3.367188 -5.59375 3.078125 -5.40625 C 2.796875 -5.226562 2.566406 -4.953125 2.390625 -4.578125 C 2.210938 -4.210938 2.125 -3.757812 2.125 -3.21875 L 2.125 0 L 1.203125 0 Z M 1.203125 -4.90625 "/></g></g></g><g fill="#1b1b1b" fill-opacity="1"><g transform="translate(219.990199, 289.030916)"><g><path d="M 4.09375 0.15625 C 3.457031 0.15625 2.882812 0.015625 2.375 -0.265625 C 1.863281 -0.554688 1.460938 -0.953125 1.171875 -1.453125 C 0.890625 -1.953125 0.75 -2.515625 0.75 -3.140625 C 0.75 -3.765625 0.890625 -4.328125 1.171875 -4.828125 C 1.460938 -5.335938 1.863281 -5.734375 2.375 -6.015625 C 2.882812 -6.304688 3.457031 -6.453125 4.09375 -6.453125 C 4.738281 -6.453125 5.316406 -6.304688 5.828125 -6.015625 C 6.335938 -5.734375 6.734375 -5.335938 7.015625 -4.828125 C 7.304688 -4.328125 7.453125 -3.765625 7.453125 -3.140625 C 7.453125 -2.515625 7.304688 -1.953125 7.015625 -1.453125 C 6.734375 -0.953125 6.335938 -0.554688 5.828125 -0.265625 C 5.316406 0.015625 4.738281 0.15625 4.09375 0.15625 Z M 4.09375 -0.625 C 4.570312 -0.625 4.992188 -0.734375 5.359375 -0.953125 C 5.722656 -1.179688 6 -1.484375 6.1875 -1.859375 C 6.382812 -2.242188 6.484375 -2.671875 6.484375 -3.140625 C 6.484375 -3.617188 6.382812 -4.050781 6.1875 -4.4375 C 6 -4.820312 5.722656 -5.125 5.359375 -5.34375 C 4.992188 -5.570312 4.570312 -5.6875 4.09375 -5.6875 C 3.625 -5.6875 3.207031 -5.570312 2.84375 -5.34375 C 2.488281 -5.125 2.210938 -4.820312 2.015625 -4.4375 C 1.816406 -4.050781 1.71875 -3.617188 1.71875 -3.140625 C 1.71875 -2.671875 1.816406 -2.242188 2.015625 -1.859375 C 2.210938 -1.484375 2.488281 -1.179688 2.84375 -0.953125 C 3.207031 -0.734375 3.625 -0.625 4.09375 -0.625 Z M 4.09375 -0.625 "/></g></g></g><g fill="#1b1b1b" fill-opacity="1"><g transform="translate(228.200605, 289.030916)"><g><path d="M 2.15625 0 L 1.234375 0 L 1.234375 -10.15625 L 2.15625 -10.15625 Z M 2.15625 0 "/></g></g></g><g fill="#1b1b1b" fill-opacity="1"><g transform="translate(231.586899, 289.030916)"><g><path d="M 4.09375 0.15625 C 3.457031 0.15625 2.882812 0.015625 2.375 -0.265625 C 1.863281 -0.554688 1.460938 -0.953125 1.171875 -1.453125 C 0.890625 -1.953125 0.75 -2.515625 0.75 -3.140625 C 0.75 -3.765625 0.890625 -4.328125 1.171875 -4.828125 C 1.460938 -5.335938 1.863281 -5.734375 2.375 -6.015625 C 2.882812 -6.304688 3.457031 -6.453125 4.09375 -6.453125 C 4.738281 -6.453125 5.316406 -6.304688 5.828125 -6.015625 C 6.335938 -5.734375 6.734375 -5.335938 7.015625 -4.828125 C 7.304688 -4.328125 7.453125 -3.765625 7.453125 -3.140625 C 7.453125 -2.515625 7.304688 -1.953125 7.015625 -1.453125 C 6.734375 -0.953125 6.335938 -0.554688 5.828125 -0.265625 C 5.316406 0.015625 4.738281 0.15625 4.09375 0.15625 Z M 4.09375 -0.625 C 4.570312 -0.625 4.992188 -0.734375 5.359375 -0.953125 C 5.722656 -1.179688 6 -1.484375 6.1875 -1.859375 C 6.382812 -2.242188 6.484375 -2.671875 6.484375 -3.140625 C 6.484375 -3.617188 6.382812 -4.050781 6.1875 -4.4375 C 6 -4.820312 5.722656 -5.125 5.359375 -5.34375 C 4.992188 -5.570312 4.570312 -5.6875 4.09375 -5.6875 C 3.625 -5.6875 3.207031 -5.570312 2.84375 -5.34375 C 2.488281 -5.125 2.210938 -4.820312 2.015625 -4.4375 C 1.816406 -4.050781 1.71875 -3.617188 1.71875 -3.140625 C 1.71875 -2.671875 1.816406 -2.242188 2.015625 -1.859375 C 2.210938 -1.484375 2.488281 -1.179688 2.84375 -0.953125 C 3.207031 -0.734375 3.625 -0.625 4.09375 -0.625 Z M 4.09375 -0.625 "/></g></g></g><g fill="#1b1b1b" fill-opacity="1"><g transform="translate(239.797305, 289.030916)"><g><path d="M 3.90625 3.21875 C 3.332031 3.21875 2.78125 3.101562 2.25 2.875 C 1.71875 2.65625 1.265625 2.351562 0.890625 1.96875 L 1.546875 1.265625 C 1.804688 1.597656 2.15625 1.875 2.59375 2.09375 C 3.03125 2.3125 3.484375 2.421875 3.953125 2.421875 C 4.804688 2.421875 5.425781 2.191406 5.8125 1.734375 C 6.207031 1.273438 6.40625 0.679688 6.40625 -0.046875 L 6.40625 -1.234375 L 6.390625 -1.234375 C 6.148438 -0.859375 5.804688 -0.554688 5.359375 -0.328125 C 4.921875 -0.109375 4.46875 0 4 0 C 3.351562 0 2.785156 -0.132812 2.296875 -0.40625 C 1.804688 -0.675781 1.425781 -1.054688 1.15625 -1.546875 C 0.882812 -2.035156 0.75 -2.585938 0.75 -3.203125 C 0.75 -3.796875 0.882812 -4.335938 1.15625 -4.828125 C 1.4375 -5.328125 1.820312 -5.722656 2.3125 -6.015625 C 2.800781 -6.304688 3.363281 -6.453125 4 -6.453125 C 4.476562 -6.453125 4.929688 -6.34375 5.359375 -6.125 C 5.796875 -5.90625 6.140625 -5.597656 6.390625 -5.203125 L 6.40625 -5.203125 L 6.40625 -6.296875 L 7.328125 -6.296875 L 7.328125 -0.046875 C 7.328125 0.484375 7.226562 0.992188 7.03125 1.484375 C 6.832031 1.972656 6.476562 2.382812 5.96875 2.71875 C 5.457031 3.050781 4.769531 3.21875 3.90625 3.21875 Z M 4.09375 -0.78125 C 4.5625 -0.78125 4.976562 -0.878906 5.34375 -1.078125 C 5.71875 -1.285156 6.003906 -1.578125 6.203125 -1.953125 C 6.410156 -2.328125 6.515625 -2.75 6.515625 -3.21875 C 6.515625 -3.664062 6.410156 -4.078125 6.203125 -4.453125 C 5.992188 -4.828125 5.703125 -5.125 5.328125 -5.34375 C 4.960938 -5.570312 4.550781 -5.6875 4.09375 -5.6875 C 3.601562 -5.6875 3.175781 -5.570312 2.8125 -5.34375 C 2.457031 -5.125 2.1875 -4.828125 2 -4.453125 C 1.8125 -4.078125 1.71875 -3.664062 1.71875 -3.21875 C 1.71875 -2.769531 1.8125 -2.359375 2 -1.984375 C 2.1875 -1.617188 2.457031 -1.328125 2.8125 -1.109375 C 3.175781 -0.890625 3.601562 -0.78125 4.09375 -0.78125 Z M 4.09375 -0.78125 "/></g></g></g><g fill="#1b1b1b" fill-opacity="1"><g transform="translate(248.289901, 289.030916)"><g><path d="M 2.140625 0 L 1.21875 0 L 1.21875 -6.296875 L 2.140625 -6.296875 Z M 2.015625 -7.578125 L 1.21875 -7.578125 L 2.578125 -9.515625 L 3.8125 -9.515625 Z M 2.015625 -7.578125 "/></g></g></g><g fill="#1b1b1b" fill-opacity="1"><g transform="translate(251.649322, 289.030916)"><g><path d="M 2.921875 0.15625 C 2.566406 0.15625 2.222656 0.09375 1.890625 -0.03125 C 1.554688 -0.164062 1.28125 -0.375 1.0625 -0.65625 C 0.84375 -0.945312 0.734375 -1.3125 0.734375 -1.75 C 0.734375 -2.34375 0.925781 -2.796875 1.3125 -3.109375 C 1.707031 -3.421875 2.210938 -3.625 2.828125 -3.71875 C 3.441406 -3.8125 4.207031 -3.859375 5.125 -3.859375 L 5.171875 -3.859375 L 5.171875 -4.0625 C 5.171875 -4.59375 5.023438 -4.992188 4.734375 -5.265625 C 4.453125 -5.546875 4.039062 -5.6875 3.5 -5.6875 C 3.132812 -5.6875 2.785156 -5.617188 2.453125 -5.484375 C 2.128906 -5.347656 1.851562 -5.164062 1.625 -4.9375 L 1.109375 -5.546875 C 1.378906 -5.816406 1.726562 -6.035156 2.15625 -6.203125 C 2.59375 -6.367188 3.070312 -6.453125 3.59375 -6.453125 C 4.050781 -6.453125 4.460938 -6.363281 4.828125 -6.1875 C 5.203125 -6.019531 5.492188 -5.765625 5.703125 -5.421875 C 5.921875 -5.078125 6.03125 -4.660156 6.03125 -4.171875 L 6.03125 -1.40625 C 6.03125 -1.15625 6.039062 -0.898438 6.0625 -0.640625 C 6.082031 -0.378906 6.109375 -0.164062 6.140625 0 L 5.328125 0 C 5.265625 -0.351562 5.234375 -0.691406 5.234375 -1.015625 L 5.203125 -1.015625 C 4.910156 -0.609375 4.582031 -0.3125 4.21875 -0.125 C 3.863281 0.0625 3.429688 0.15625 2.921875 0.15625 Z M 3.15625 -0.59375 C 3.570312 -0.59375 3.929688 -0.6875 4.234375 -0.875 C 4.535156 -1.0625 4.765625 -1.3125 4.921875 -1.625 C 5.085938 -1.945312 5.171875 -2.296875 5.171875 -2.671875 L 5.171875 -3.140625 L 4.90625 -3.140625 C 3.957031 -3.140625 3.179688 -3.046875 2.578125 -2.859375 C 1.984375 -2.679688 1.6875 -2.320312 1.6875 -1.78125 C 1.6875 -1.375 1.828125 -1.070312 2.109375 -0.875 C 2.398438 -0.6875 2.75 -0.59375 3.15625 -0.59375 Z M 3.15625 -0.59375 "/></g></g></g></svg>